<?xml version="1.0" standalone="no"?>
<!DOCTYPE svg PUBLIC "-//W3C//DTD SVG 20010904//EN"
 "http://www.w3.org/TR/2001/REC-SVG-20010904/DTD/svg10.dtd">
<svg version="1.0" xmlns="http://www.w3.org/2000/svg"
 width="460.000000pt" height="460.000000pt" viewBox="0 0 460.000000 460.000000"
 preserveAspectRatio="xMidYMid meet">
<metadata>
Created by potrace 1.11, written by Peter Selinger 2001-2013
</metadata>
<g transform="translate(0.000000,460.000000) scale(0.100000,-0.100000)"
fill="#000000" stroke="none">
<path d="M0 2300 l0 -2300 2300 0 2300 0 0 2300 0 2300 -2300 0 -2300 0 0
-2300z m2620 1636 c290 -62 539 -181 763 -364 175 -142 370 -390 463 -587 226
-482 232 -991 17 -1482 -42 -96 -63 -125 -63 -87 0 61 -225 165 -522 244 -49
13 -88 27 -88 32 0 21 32 66 79 111 63 59 107 149 131 265 9 48 25 101 34 117
30 57 22 83 -52 165 -37 41 -97 113 -134 160 -87 112 -143 164 -201 189 -30
13 -51 29 -57 45 -14 37 -44 52 -155 77 -55 12 -117 30 -137 41 -34 16 -106
39 -183 57 -23 5 -37 20 -62 65 -38 67 -41 92 -14 99 22 5 41 61 41 118 0 20
7 54 16 75 14 34 15 48 4 107 -7 38 -18 81 -26 95 -8 15 -11 34 -9 43 10 30
-40 88 -87 103 -16 5 -18 20 -18 131 0 118 -1 125 -20 125 -18 0 -20 -7 -20
-65 0 -36 -4 -65 -8 -65 -4 0 -22 29 -40 65 -23 48 -37 65 -52 65 -19 0 -20
-7 -20 -105 l0 -105 -32 0 c-18 0 -50 -3 -70 -6 l-38 -7 0 37 c0 32 3 36 25
36 19 0 25 5 25 21 0 18 -4 21 -29 16 -25 -5 -29 -3 -34 21 -6 33 -7 33 42 39
43 6 46 9 32 32 -11 17 -131 6 -131 -12 0 -7 7 -68 16 -135 10 -72 13 -127 8
-130 -11 -9 -31 -40 -44 -71 -18 -40 -16 -231 2 -270 l15 -34 13 88 c7 49 20
112 29 139 13 43 20 51 38 48 12 -2 24 2 27 7 4 6 12 8 20 5 7 -3 25 0 40 6
21 7 34 6 56 -5 19 -10 43 -13 72 -9 47 7 78 -11 78 -42 0 -11 6 -13 20 -9 15
5 20 2 20 -10 0 -11 5 -15 14 -12 11 5 13 -1 9 -21 -4 -15 -7 -37 -7 -49 -1
-25 -8 -27 -86 -24 -32 1 -52 -5 -69 -19 -22 -19 -24 -29 -23 -91 1 -54 -2
-69 -14 -69 -21 0 -17 -18 5 -25 24 -7 35 -34 16 -41 -20 -8 -7 -34 19 -34 21
-1 21 -1 2 -15 -15 -12 -17 -18 -8 -27 9 -9 14 -4 23 20 6 18 15 32 20 32 11
0 12 53 2 64 -9 9 -32 95 -33 122 0 12 7 27 15 34 12 10 15 10 15 -3 0 -19 5
-23 48 -32 32 -7 33 -6 23 14 -7 13 -22 21 -37 21 -16 0 -23 4 -18 11 10 17
69 4 93 -20 20 -20 20 -23 5 -63 -9 -24 -22 -67 -28 -97 -8 -37 -24 -68 -48
-96 -20 -23 -43 -59 -52 -80 l-16 -38 -63 6 c-34 3 -71 8 -82 12 -11 3 -2 -5
20 -19 22 -14 52 -26 68 -26 25 0 67 -30 67 -48 0 -5 -11 -19 -24 -31 -14 -14
-26 -38 -29 -65 -8 -54 -27 -98 -41 -93 -26 8 -134 234 -150 312 -6 33 -16 60
-21 60 -5 0 -16 -22 -26 -49 -15 -45 -22 -52 -70 -74 -91 -40 -162 -65 -193
-67 -44 -3 -205 -80 -213 -102 -14 -37 -79 -110 -178 -198 -59 -52 -145 -192
-145 -235 0 -39 32 -133 71 -211 38 -74 53 -125 65 -224 5 -40 13 -57 45 -89
29 -28 36 -41 27 -47 -7 -4 -53 -18 -103 -30 -92 -22 -314 -96 -385 -128 -22
-10 -37 -21 -32 -26 4 -5 1 -5 -6 -1 -23 13 -121 -63 -134 -104 -7 -23 -71
111 -118 245 -285 829 84 1736 867 2129 173 87 351 143 548 172 146 21 442 12
585 -20z m-342 -222 c19 -39 20 -45 7 -40 -9 3 -23 6 -31 6 -10 0 -14 12 -14
40 0 22 4 40 8 40 4 0 18 -21 30 -46z m92 -728 c0 -7 -7 -19 -15 -26 -16 -13
-20 -3 -9 24 8 20 24 21 24 2z m-300 -261 c0 -8 -4 -15 -10 -15 -5 0 -10 7
-10 15 0 8 5 15 10 15 6 0 10 -7 10 -15z m-40 -101 c0 -8 -5 -12 -10 -9 -6 4
-8 11 -5 16 9 14 15 11 15 -7z m141 -29 c-1 -15 -24 -12 -29 3 -3 9 2 13 12
10 10 -1 17 -7 17 -13z m33 -222 c4 -5 24 -13 44 -18 32 -9 37 -15 40 -43 l3
-32 -119 0 c-65 0 -121 2 -124 5 -3 3 -3 17 0 30 3 18 14 27 40 35 39 10 48 6
55 -25 2 -11 3 -3 1 18 -4 35 -3 37 24 37 16 0 32 -3 36 -7z m-66 -130 c7 -7
21 -13 30 -12 15 0 15 1 -1 8 -10 4 -19 10 -20 15 -3 11 133 15 139 4 5 -7
-33 -13 -63 -9 -21 3 -15 -9 10 -19 18 -7 15 -9 -23 -10 -25 -1 -60 -3 -77 -4
-21 -1 -33 3 -33 11 0 7 -9 13 -20 13 -11 0 -20 7 -20 15 0 11 8 13 32 8 18
-4 39 -12 46 -20z m846 6 c68 -18 85 -30 92 -63 3 -17 12 -35 18 -39 7 -5 7
-10 1 -13 -5 -2 -26 -12 -45 -22 l-35 -17 -3 -96 c-3 -92 -4 -97 -32 -124 -18
-17 -30 -39 -30 -54 0 -35 -59 -83 -83 -69 -26 14 -21 30 23 73 22 21 40 42
40 46 0 4 -19 11 -43 17 l-42 11 3 78 c3 71 38 197 74 266 10 20 9 20 62 6z
m-1328 -19 c47 0 62 -28 79 -151 7 -57 17 -118 20 -136 8 -35 14 -31 -82 -52
-49 -10 -52 -8 -77 61 -9 25 -24 52 -32 58 -7 7 -14 24 -14 39 0 15 -4 31 -9
37 -5 5 -12 39 -16 76 -6 64 -6 67 17 71 13 3 36 3 52 1 16 -2 44 -4 62 -4z
m649 -252 c4 -3 -7 -33 -24 -67 -37 -71 -37 -75 -11 -61 11 6 20 17 20 25 0 8
5 15 10 15 6 0 10 -13 10 -30 0 -27 -3 -30 -32 -31 -41 -1 -92 2 -96 6 -2 2
10 30 27 64 17 33 31 63 31 65 0 13 -30 -8 -35 -25 -9 -29 -25 -23 -25 9 0 16
2 31 4 33 7 6 115 4 121 -3z m165 -11 c0 -7 -16 -38 -35 -69 -25 -43 -30 -58
-19 -58 8 0 20 11 26 25 16 35 30 31 26 -7 -3 -30 -6 -33 -40 -36 -20 -2 -50
1 -67 5 l-32 8 36 59 c36 60 39 90 4 47 -23 -29 -33 -23 -25 16 6 27 8 28 66
25 37 -2 60 -8 60 -15z m-318 1 c-12 -16 -3 -128 10 -128 5 0 6 -4 3 -10 -3
-5 -23 -10 -43 -10 l-37 0 -1 53 c0 28 -3 64 -7 80 -7 27 -7 27 39 27 36 0 44
-3 36 -12z m-101 -22 c15 -32 -4 -65 -42 -73 -20 -4 -29 -11 -29 -24 0 -11 5
-19 10 -19 6 0 10 -4 10 -9 0 -11 -90 -19 -96 -9 -3 5 0 8 6 8 13 0 3 108 -12
127 -10 13 16 19 95 22 41 1 49 -2 58 -23z m565 -61 c13 -44 22 -80 21 -81 -1
-1 -19 1 -39 3 -31 4 -37 9 -35 27 1 15 -4 22 -21 24 -18 3 -23 -1 -20 -15 3
-19 -2 -23 -26 -23 -13 0 -10 9 48 118 28 53 47 39 72 -53z m-95 -136 c111
-11 127 -15 110 -32 -19 -19 -12 -27 22 -27 18 0 75 -11 126 -24 l92 -24 -6
39 c-6 37 -5 39 18 39 34 0 198 -34 337 -70 275 -72 502 -165 544 -223 20 -26
21 -45 24 -255 2 -124 1 -241 -3 -259 -13 -68 102 -64 -1515 -63 -963 0 -1468
4 -1480 10 -35 19 -42 74 -38 305 4 262 5 266 102 320 121 67 468 176 705 219
124 24 125 23 118 -23 l-5 -39 70 19 c38 11 96 22 129 26 57 6 59 7 43 24 -14
16 -14 19 -2 24 58 23 442 32 609 14z"/>
<path d="M2430 3850 c0 -13 7 -20 18 -20 10 0 21 -2 24 -5 2 -3 -1 -44 -8 -93
-18 -114 -18 -112 11 -112 14 0 25 3 25 8 0 10 19 131 26 164 5 23 10 27 28
22 16 -4 25 0 30 12 9 23 4 26 -51 35 -83 14 -103 11 -103 -11z"/>
<path d="M1879 3833 c-15 -4 -14 -13 6 -96 13 -51 26 -104 29 -119 6 -27 38
-39 50 -20 8 13 -48 242 -59 241 -5 -1 -17 -3 -26 -6z"/>
<path d="M2641 3804 c-29 -37 -26 -58 14 -103 37 -40 45 -78 20 -87 -19 -8
-48 15 -41 32 4 11 -14 24 -35 24 -16 0 -10 -56 9 -72 43 -38 104 -32 127 13
18 34 10 60 -34 109 -18 19 -30 41 -29 50 5 23 42 18 53 -7 5 -12 17 -24 27
-26 30 -8 24 47 -8 72 -37 29 -78 27 -103 -5z"/>
<path d="M1685 3773 c-22 -9 -41 -17 -43 -18 -2 -2 76 -222 83 -232 6 -10 104
40 119 60 18 24 18 26 -4 93 -37 109 -71 131 -155 97z m99 -93 c12 -30 20 -62
18 -72 -4 -19 -32 -33 -42 -21 -14 15 -58 142 -52 148 4 3 17 5 30 3 19 -2 29
-15 46 -58z"/>
<path d="M1503 3690 l-52 -30 56 -108 c31 -59 57 -108 58 -109 1 -2 29 12 63
30 57 31 61 35 48 52 -13 18 -14 18 -48 -2 l-34 -20 -16 27 c-15 27 -15 29 11
48 20 15 23 23 15 32 -9 9 -17 9 -35 0 -19 -11 -24 -10 -36 6 -19 26 -17 32
20 50 41 21 39 18 31 38 -9 22 -21 20 -81 -14z"/>
<path d="M2964 3622 c-26 -48 -54 -97 -61 -109 -13 -20 -12 -23 29 -46 70 -41
84 -42 114 -10 18 19 24 36 22 55 -3 19 1 28 13 31 22 6 52 63 45 85 -4 10
-31 32 -61 49 l-54 32 -47 -87z m105 4 c9 -11 9 -19 -1 -35 -14 -23 -25 -26
-48 -11 -12 7 -12 12 0 34 15 29 32 33 49 12z m-49 -86 c12 -7 12 -12 0 -34
-14 -28 -26 -31 -50 -16 -12 7 -12 12 0 34 14 28 26 31 50 16z"/>
<path d="M1309 3569 c-24 -18 -46 -33 -48 -35 -2 -2 29 -48 68 -104 64 -89 74
-99 92 -90 24 13 24 13 -8 61 -27 40 -27 42 -8 56 18 13 23 11 51 -23 24 -28
36 -35 52 -29 12 3 22 10 22 15 0 14 -63 80 -77 80 -7 0 -13 9 -13 19 0 26
-47 81 -69 81 -10 0 -38 -14 -62 -31z m81 -44 c12 -22 11 -27 -6 -40 -17 -12
-21 -12 -36 8 -21 26 -23 43 -5 50 24 10 34 7 47 -18z"/>
<path d="M2756 3574 c-7 -19 1 -34 18 -34 14 0 28 35 18 44 -11 11 -30 6 -36
-10z"/>
<path d="M3135 3490 l-75 -99 55 -42 c53 -40 56 -41 69 -23 13 17 11 21 -20
43 -27 19 -31 27 -24 42 16 28 29 32 56 15 22 -15 25 -15 30 -1 4 9 -1 24 -10
34 -20 22 -20 35 -1 51 11 9 20 8 46 -10 27 -20 32 -21 45 -8 13 13 8 20 -40
56 l-55 42 -76 -100z"/>
<path d="M3350 3455 c-11 -13 -10 -19 6 -36 17 -19 16 -21 -54 -92 -68 -69
-71 -74 -55 -90 16 -16 21 -13 90 55 72 71 72 72 93 53 18 -16 22 -17 35 -4
13 13 8 22 -43 72 -52 51 -60 56 -72 42z"/>
<path d="M1130 3425 c-40 -43 -32 -78 36 -146 32 -33 69 -62 81 -65 27 -7 72
22 79 52 3 13 11 22 16 21 25 -5 16 23 -21 64 l-40 44 -27 -26 c-28 -29 -25
-54 6 -44 24 8 42 -23 29 -48 -16 -28 -33 -20 -88 37 -56 60 -59 67 -35 87 13
10 19 10 36 0 17 -11 23 -10 36 3 23 23 -1 46 -47 46 -27 0 -44 -7 -61 -25z"/>
<path d="M2055 3330 c-5 -8 -2 -10 11 -6 11 3 32 -1 48 -9 32 -17 56 -19 56
-6 0 14 -10 18 -61 26 -32 5 -49 3 -54 -5z"/>
<path d="M3501 3306 c-10 -11 -10 -20 0 -37 13 -24 7 -31 -98 -112 -48 -36
-48 -36 -29 -62 12 -17 18 -14 94 49 78 63 82 65 94 46 15 -23 36 -26 44 -5 4
8 -14 40 -42 75 -26 33 -48 60 -49 60 -2 0 -8 -6 -14 -14z"/>
<path d="M1010 3291 c-9 -18 -3 -26 42 -62 l53 -42 -55 8 c-149 22 -155 3 -29
-94 50 -39 95 -71 99 -71 4 0 11 8 15 17 6 18 -3 29 -70 81 -30 23 -30 23 -5
18 78 -16 136 -18 148 -4 10 12 -2 26 -70 79 -126 98 -115 92 -128 70z"/>
<path d="M2077 3283 c-11 -10 -8 -25 3 -18 5 3 17 2 27 -3 15 -9 43 5 43 22 0
8 -65 7 -73 -1z"/>
<path d="M3540 3070 c-52 -33 -94 -64 -93 -69 2 -6 17 -33 34 -60 27 -45 32
-49 49 -39 19 12 18 13 -2 47 l-21 34 22 18 c30 25 36 24 49 -6 7 -16 17 -23
27 -19 18 7 19 18 3 45 -11 17 -10 22 6 35 27 20 30 18 52 -21 11 -21 24 -33
32 -30 8 3 16 5 18 5 11 0 1 24 -27 70 -17 27 -36 50 -42 49 -7 0 -55 -27
-107 -59z"/>
<path d="M865 3089 c-4 -11 -5 -22 -3 -24 1 -1 48 -30 103 -64 91 -55 101 -60
113 -44 6 9 12 20 12 23 0 7 -201 130 -212 130 -4 0 -10 -9 -13 -21z"/>
<path d="M2070 2935 c7 -8 17 -15 22 -15 6 0 5 7 -2 15 -7 8 -17 15 -22 15 -6
0 -5 -7 2 -15z"/>
<path d="M3640 2904 c-57 -25 -106 -47 -108 -49 -2 -2 1 -12 7 -24 11 -19 12
-20 57 -3 39 15 46 15 54 2 15 -24 12 -28 -30 -50 -40 -20 -47 -33 -32 -58 7
-10 19 -7 55 14 26 14 47 30 47 35 0 5 11 9 25 9 38 0 75 21 81 47 7 25 -25
115 -41 119 -6 2 -57 -17 -115 -42z m113 -34 c7 -28 -36 -58 -58 -40 -23 19
-18 37 13 48 38 14 39 14 45 -8z"/>
<path d="M744 2844 c-14 -32 -21 -60 -17 -65 15 -15 214 -89 224 -84 22 15 7
43 -31 58 -69 27 -45 70 26 47 33 -11 39 -11 51 6 7 10 13 21 13 24 0 9 -109
35 -116 28 -3 -3 -16 5 -29 18 -17 16 -35 24 -60 24 -34 0 -37 -3 -61 -56z
m106 -26 c0 -24 -23 -33 -49 -18 -23 12 -27 30 -10 47 16 16 59 -5 59 -29z"/>
<path d="M677 2648 c-8 -35 -12 -66 -9 -70 11 -11 213 -60 227 -55 6 3 17 31
24 62 11 48 11 59 0 66 -23 14 -28 11 -35 -26 -7 -42 -17 -49 -51 -41 -21 6
-24 11 -18 33 4 17 2 29 -7 34 -21 14 -25 11 -31 -20 -5 -24 -10 -28 -32 -23
-25 4 -27 7 -21 47 6 34 4 44 -9 49 -9 3 -18 6 -19 6 -2 0 -10 -28 -19 -62z"/>
<path d="M3747 2622 c-107 -23 -118 -27 -115 -46 3 -18 9 -21 49 -18 45 3 46
2 62 -39 l16 -42 52 5 c69 7 83 25 74 98 -4 30 -10 58 -13 61 -4 3 -60 -5
-125 -19z m98 -63 c0 -21 -5 -24 -37 -27 -35 -3 -38 -1 -38 22 0 19 6 26 28
29 41 6 47 3 47 -24z"/>
<path d="M647 2503 c-2 -5 -8 -41 -11 -80 -7 -69 -6 -73 13 -73 14 0 21 6 21
19 0 30 12 32 110 20 51 -6 93 -9 95 -7 2 1 5 12 7 23 3 18 -7 21 -97 35
l-100 15 3 28 c3 21 -1 27 -17 27 -11 0 -22 -3 -24 -7z"/>
<path d="M3760 2416 c-52 -6 -94 -14 -92 -18 1 -5 2 -15 2 -24 0 -15 10 -16
78 -10 164 14 169 15 164 42 -5 27 -5 27 -152 10z"/>
<path d="M3674 2306 c-3 -8 -4 -43 -2 -77 3 -57 5 -64 25 -67 19 -3 22 2 25
41 l3 45 94 -44 c52 -24 95 -44 97 -44 2 0 4 34 4 75 0 68 -2 75 -20 75 -17 0
-20 -7 -20 -40 0 -22 -5 -40 -10 -40 -6 0 -51 20 -100 45 -71 35 -92 42 -96
31z"/>
<path d="M620 2251 c0 -76 10 -111 31 -111 14 0 19 7 19 25 0 24 2 25 69 25
101 0 131 8 131 35 0 22 -2 22 -100 18 l-100 -5 0 31 c0 26 -4 31 -25 31 -23
0 -25 -3 -25 -49z"/>
<path d="M3666 2073 c-4 -32 -9 -65 -12 -74 -3 -11 3 -18 16 -22 12 -3 23 0
25 6 1 7 7 27 11 45 l9 32 90 -60 c102 -68 95 -71 108 43 7 52 5 57 -12 57
-21 0 -31 -18 -31 -56 0 -13 -4 -24 -10 -24 -5 0 -46 25 -92 55 -45 30 -85 55
-89 55 -4 0 -10 -26 -13 -57z"/>
<path d="M838 2065 c4 -44 4 -45 -27 -45 -24 0 -32 5 -37 25 -9 35 -34 32 -34
-4 0 -21 -6 -32 -20 -36 -28 -9 -37 -1 -44 44 -5 33 -9 38 -26 34 -23 -6 -23
0 -9 -78 l10 -61 114 16 c62 8 116 18 120 22 4 4 4 34 0 67 -6 54 -10 61 -29
61 -19 0 -21 -4 -18 -45z"/>
<path d="M3646 1934 c-9 -25 -7 -34 8 -34 21 0 28 -15 20 -44 -4 -17 -14 -26
-32 -28 -15 -2 -28 -10 -30 -19 -4 -22 36 -29 153 -29 95 0 105 4 105 44 0 10
-196 126 -213 126 -3 0 -8 -7 -11 -16z m144 -109 c0 -4 -73 6 -79 11 -2 2 -1
10 2 18 5 14 11 13 42 -5 19 -12 35 -22 35 -24z"/>
<path d="M810 1903 c-13 -9 -41 -18 -61 -18 -67 -2 -81 -30 -58 -121 9 -34 15
-43 28 -40 9 3 61 17 116 32 55 15 102 29 104 30 7 6 -22 99 -37 117 -19 22
-61 22 -92 0z m75 -54 c8 -25 6 -27 -33 -35 -29 -6 -32 -4 -32 18 0 31 7 38
36 38 14 0 25 -8 29 -21z m-98 -25 c7 -18 -3 -29 -35 -39 -24 -7 -39 13 -28
40 7 20 55 19 63 -1z"/>
<path d="M3586 1744 c-8 -21 1 -34 24 -34 28 0 32 26 5 38 -19 9 -25 8 -29 -4z"/>
<path d="M2200 2338 c0 -11 12 -10 30 2 12 7 10 9 -8 7 -12 0 -22 -5 -22 -9z"/>
<path d="M2250 2322 c0 -11 -8 -23 -17 -25 -10 -3 -6 -4 10 -4 15 1 27 7 27
14 0 7 0 16 1 20 0 4 -4 9 -10 11 -6 2 -11 -5 -11 -16z"/>
<path d="M2081 2314 c0 -11 3 -14 6 -6 3 7 2 16 -1 19 -3 4 -6 -2 -5 -13z"/>
<path d="M2225 2320 c-3 -5 -1 -10 4 -10 6 0 11 5 11 10 0 6 -2 10 -4 10 -3 0
-8 -4 -11 -10z"/>
<path d="M1970 1936 c0 -24 12 -46 21 -40 14 9 10 41 -6 48 -9 3 -15 0 -15 -8z"/>
<path d="M2540 1890 c0 -5 5 -10 11 -10 5 0 7 5 4 10 -3 6 -8 10 -11 10 -2 0
-4 -4 -4 -10z"/>
<path d="M2265 1583 c12 -129 16 -449 6 -476 -11 -29 -45 -36 -82 -17 -18 10
-19 7 -19 -64 l0 -74 36 -17 c43 -20 119 -24 150 -7 12 6 30 28 40 49 16 33
20 73 26 288 4 138 9 279 10 315 l3 65 -88 3 -89 3 7 -68z"/>
<path d="M2540 1633 c-19 -10 -45 -33 -57 -52 -22 -33 -23 -41 -23 -288 0
-281 1 -285 64 -341 80 -70 198 -51 251 39 19 32 20 52 20 296 0 249 -1 263
-21 289 -38 51 -70 68 -137 72 -46 2 -71 -2 -97 -15z m115 -348 l0 -210 -25 0
-25 0 -3 200 c-1 110 0 206 3 213 3 7 15 12 27 10 l23 -3 0 -210z"/>
<path d="M1852 1630 c-40 -5 -75 -10 -76 -12 -4 -5 -87 -576 -93 -635 l-5 -53
82 0 82 0 -6 58 c-13 127 -16 117 33 120 l43 3 -6 -38 c-4 -21 -10 -62 -13
-90 l-5 -53 92 0 92 0 -6 53 c-8 81 -76 609 -82 635 -5 24 -8 25 -132 12z m27
-265 c7 -55 14 -112 17 -127 5 -26 4 -28 -30 -28 -36 0 -36 0 -31 38 7 53 25
205 25 216 0 5 2 7 4 5 2 -2 9 -49 15 -104z"/>
<path d="M2835 1533 c9 -111 9 -458 0 -540 l-7 -63 77 0 77 0 -6 63 c-4 34 -9
92 -12 130 l-6 67 33 0 32 0 -7 -130 -7 -130 82 0 81 0 -7 63 c-8 60 -9 350
-3 492 l3 69 -53 12 c-29 7 -64 15 -78 18 l-26 7 7 -141 8 -140 -33 0 -32 0 6
63 c3 34 8 99 12 143 l6 82 -64 11 c-97 17 -91 23 -83 -76z"/>
<path d="M1462 1570 c-35 -9 -68 -22 -74 -28 -6 -6 -7 -33 -3 -68 9 -79 9
-393 0 -476 l-7 -68 77 0 77 0 -5 58 c-4 31 -9 72 -13 90 l-6 32 52 0 c59 0
103 21 119 57 7 14 11 90 11 184 0 179 -6 200 -67 225 -42 18 -84 17 -161 -6z
m93 -220 c0 -112 -1 -115 -22 -118 -23 -3 -23 -2 -23 118 0 120 0 121 23 118
21 -3 22 -6 22 -118z"/>
<path d="M3203 1454 c8 -114 8 -382 0 -466 l-5 -58 57 0 57 0 -7 108 c-4 59
-5 105 -2 102 3 -3 12 -34 21 -70 39 -154 31 -140 86 -140 l50 0 0 188 c0 123
5 202 13 232 7 25 11 60 8 79 -5 31 -11 36 -60 52 l-54 19 6 -128 6 -127 -27
135 -27 134 -44 13 c-24 7 -53 15 -64 19 -19 6 -20 3 -14 -92z"/>
<path d="M1214 1508 l-71 -19 -33 -227 c-18 -125 -35 -251 -38 -279 l-4 -53
67 0 67 0 -5 53 c-3 28 -8 65 -12 80 -7 27 -6 28 21 25 24 -2 28 -7 26 -28 -2
-14 -6 -49 -9 -77 l-5 -53 67 0 67 0 -5 63 c-7 85 -57 530 -60 532 -1 1 -34
-6 -73 -17z m11 -260 c7 -86 6 -88 -15 -88 -21 0 -21 3 -15 68 7 74 14 116 19
111 2 -2 7 -43 11 -91z"/>
<path d="M3505 1440 c-4 -6 -1 -17 5 -25 6 -8 8 -20 4 -27 -3 -7 3 -3 16 9 14
13 20 28 17 37 -7 18 -33 21 -42 6z"/>
<path d="M895 1400 l-50 -20 0 -225 0 -225 58 0 59 0 -5 48 c-3 26 -9 62 -12
80 l-7 32 41 0 c31 0 48 6 66 25 24 23 25 30 25 145 0 107 -2 122 -20 140 -26
26 -88 26 -155 0z m85 -155 c0 -62 -4 -84 -14 -88 -23 -9 -26 2 -26 88 0 86 3
97 26 88 10 -4 14 -26 14 -88z"/>
<path d="M3542 1377 c-43 -46 -54 -137 -24 -197 11 -24 33 -43 67 -61 41 -21
50 -30 53 -55 3 -36 -11 -59 -32 -51 -10 4 -16 19 -16 42 0 35 0 35 -45 35
l-45 0 0 -57 c1 -67 12 -87 65 -108 56 -24 114 -3 144 52 15 30 14 175 -2 197
-7 10 -35 30 -62 44 -39 21 -50 32 -50 52 0 33 38 36 43 3 3 -19 10 -23 43
-23 l39 0 0 54 c0 51 -2 56 -34 75 -47 30 -116 28 -144 -2z"/>
</g>
</svg>
