<?xml version="1.0" standalone="no"?>
<!DOCTYPE svg PUBLIC "-//W3C//DTD SVG 20010904//EN"
 "http://www.w3.org/TR/2001/REC-SVG-20010904/DTD/svg10.dtd">
<svg version="1.0" xmlns="http://www.w3.org/2000/svg"
 width="292.000000pt" height="292.000000pt" viewBox="0 0 292.000000 292.000000"
 preserveAspectRatio="xMidYMid meet">
<metadata>
Created by potrace 1.11, written by Peter Selinger 2001-2013
</metadata>
<g transform="translate(0.000000,292.000000) scale(0.100000,-0.100000)"
fill="#000000" stroke="none">
<path d="M0 1460 l0 -1460 1460 0 1460 0 0 1460 0 1460 -1460 0 -1460 0 0
-1460z m1595 680 c3 -5 25 -10 48 -10 41 0 41 0 19 -16 -19 -13 -22 -21 -16
-50 9 -48 -1 -79 -32 -93 l-26 -12 20 -22 c12 -12 37 -39 56 -59 34 -38 35
-38 111 -38 l77 0 89 81 c50 45 91 80 93 78 16 -19 36 -73 31 -87 -4 -9 -37
-44 -75 -77 -38 -33 -69 -63 -69 -67 -1 -5 8 -8 18 -8 35 0 32 -19 -5 -38
l-38 -19 43 -31 42 -31 44 34 c50 38 127 58 186 49 108 -18 199 -116 207 -222
6 -89 -12 -139 -71 -197 -133 -129 -331 -89 -404 83 -20 47 -20 136 1 186 15
37 15 39 -7 57 -31 27 -57 41 -57 32 0 -5 -11 -73 -25 -151 -23 -131 -24 -145
-10 -172 14 -27 20 -30 66 -30 42 0 50 -3 47 -17 -2 -10 -22 -22 -55 -31 -40
-11 -53 -19 -53 -33 0 -11 -9 -28 -21 -40 -17 -17 -28 -19 -60 -14 -21 4 -39
4 -39 1 0 -3 7 -30 15 -61 34 -134 -39 -262 -173 -301 -230 -67 -410 214 -254
397 40 46 120 89 169 89 30 0 31 2 38 51 4 27 5 51 4 53 -2 1 -23 17 -46 34
l-42 33 -33 -21 c-37 -22 -88 -27 -88 -7 0 6 14 24 31 38 29 23 30 28 19 49
-8 15 -11 48 -8 95 l5 71 -51 -13 c-55 -14 -189 -16 -221 -3 -19 7 -18 9 9 19
99 39 300 159 391 235 l30 24 -22 24 c-51 55 -51 117 1 149 33 20 81 25 91 9z
m383 -127 c-1 -5 -33 -36 -69 -70 -52 -50 -72 -63 -97 -63 -18 0 -32 3 -32 7
0 4 30 35 68 69 54 51 74 63 100 64 19 0 32 -3 30 -7z m-992 -594 c35 -39 52
-42 90 -18 19 12 37 19 40 16 3 -3 0 -24 -7 -48 l-13 -42 39 -34 38 -33 -52 0
-52 0 -21 -47 -20 -48 -17 50 c-15 48 -18 50 -58 56 -24 3 -45 8 -48 11 -3 3
10 16 31 28 33 21 36 26 31 59 -3 20 -8 44 -12 54 -10 23 8 22 31 -4z m-377
-118 l37 -30 44 26 43 26 -7 -24 c-21 -77 -21 -80 20 -115 l39 -33 -56 -1 -56
0 -13 -41 c-8 -22 -16 -42 -20 -44 -4 -2 -12 18 -19 45 -13 49 -13 50 -62 56
-27 4 -49 9 -49 13 0 3 16 17 36 29 32 21 36 27 31 55 -3 18 -8 40 -12 50 -10
24 2 21 44 -12z m365 -286 c25 15 46 25 46 23 0 -3 -7 -26 -17 -53 l-16 -48
36 -30 c21 -16 37 -32 37 -35 0 -4 -22 -5 -49 -4 l-49 4 -17 -46 c-10 -25 -21
-44 -25 -41 -4 3 -13 25 -19 50 -11 43 -13 45 -49 45 -62 0 -68 13 -22 44 25
17 40 33 36 41 -2 7 -8 30 -12 51 l-7 37 41 -32 40 -33 46 27z"/>
<path d="M1710 1776 c16 -20 114 -23 108 -3 -3 7 -27 13 -63 15 -52 3 -57 1
-45 -12z"/>
<path d="M1560 1690 c-17 -33 -31 -62 -33 -65 -1 -3 48 -6 110 -7 l112 -2 47
43 c53 50 46 68 -19 45 -56 -20 -74 -18 -134 16 l-53 30 -30 -60z"/>
<path d="M2081 1648 c-25 -13 -46 -28 -48 -34 -2 -5 33 -36 77 -69 44 -32 80
-62 80 -66 0 -25 -30 -13 -103 40 l-82 60 -14 -32 c-8 -19 -11 -54 -9 -89 5
-70 41 -121 109 -156 120 -63 279 35 279 173 0 53 -35 121 -83 159 -53 42
-142 48 -206 14z"/>
<path d="M1798 1613 c-44 -45 -46 -63 -16 -129 l22 -49 18 90 c25 126 22 135
-24 88z"/>
<path d="M1530 1491 l-55 -6 32 -22 c40 -29 42 -29 83 7 39 32 40 32 -60 21z"/>
<path d="M1620 1450 c-44 -38 -44 -39 -25 -54 18 -14 35 -20 35 -13 0 1 9 26
20 55 11 28 19 52 17 52 -1 0 -22 -18 -47 -40z"/>
<path d="M1706 1378 l-19 -32 33 -28 c38 -32 55 -35 64 -13 5 14 -42 105 -54
105 -3 0 -14 -14 -24 -32z"/>
<path d="M1560 1340 c0 -16 -1 -33 -2 -37 -2 -3 16 -13 38 -20 23 -8 58 -30
78 -49 38 -37 56 -37 56 -1 0 18 -11 26 -57 42 -47 16 -59 25 -61 45 -4 22
-27 49 -44 50 -5 0 -8 -13 -8 -30z"/>
<path d="M1447 1240 c-104 -31 -164 -157 -121 -258 33 -80 95 -122 179 -122
113 0 186 70 193 184 2 40 -1 67 -10 78 -12 16 -20 13 -97 -37 -54 -36 -88
-52 -94 -46 -6 6 -6 42 2 99 6 48 11 94 11 100 0 14 -22 14 -63 2z"/>
<path d="M1546 1223 c-2 -10 -7 -44 -11 -77 l-7 -59 39 23 c21 13 51 32 66 43
27 19 28 20 10 39 -19 21 -65 48 -82 48 -5 0 -12 -8 -15 -17z"/>
</g>
</svg>
