<?xml version="1.0" standalone="no"?>
<!DOCTYPE svg PUBLIC "-//W3C//DTD SVG 20010904//EN"
 "http://www.w3.org/TR/2001/REC-SVG-20010904/DTD/svg10.dtd">
<svg version="1.0" xmlns="http://www.w3.org/2000/svg"
 width="460.000000pt" height="460.000000pt" viewBox="0 0 460.000000 460.000000"
 preserveAspectRatio="xMidYMid meet">
<metadata>
Created by potrace 1.11, written by Peter Selinger 2001-2013
</metadata>
<g transform="translate(0.000000,460.000000) scale(0.100000,-0.100000)"
fill="#000000" stroke="none">
<path d="M0 2300 l0 -2300 2300 0 2300 0 0 2300 0 2300 -2300 0 -2300 0 0
-2300z m610 706 c0 -117 2 -136 20 -158 24 -31 70 -41 122 -27 57 15 68 48 68
199 l0 120 40 0 40 0 0 -137 c0 -157 -10 -191 -69 -230 -45 -30 -165 -32 -228
-4 -64 29 -76 62 -81 213 -2 70 -2 134 2 143 3 10 19 15 46 15 l40 0 0 -134z
m747 108 c23 -18 29 -30 31 -72 2 -40 -1 -55 -16 -68 -18 -15 -18 -16 10 -44
55 -56 28 -147 -50 -170 -21 -6 -90 -10 -157 -8 l-120 3 -3 184 c-2 141 1 187
10 193 7 5 70 7 140 6 110 -3 130 -6 155 -24z m523 10 c0 -8 -5 -24 -10 -35
-10 -17 -22 -19 -120 -19 l-110 0 0 -45 0 -45 90 0 c50 0 90 -2 90 -4 0 -3 -4
-16 -10 -30 -9 -24 -15 -26 -67 -26 -94 0 -103 -5 -103 -56 l0 -44 120 0 c68
0 120 -4 120 -9 0 -5 -4 -21 -10 -35 l-10 -26 -143 0 c-98 0 -147 4 -155 12
-8 8 -12 63 -12 183 0 120 4 175 12 183 8 8 59 12 165 12 132 0 153 -2 153
-16z m399 5 c68 -14 91 -44 91 -116 0 -43 -5 -59 -23 -77 -13 -13 -29 -25 -36
-27 -8 -3 0 -26 28 -74 23 -38 41 -73 41 -78 0 -4 -19 -7 -42 -5 -42 3 -44 5
-83 76 l-40 72 -45 0 c-26 0 -51 -5 -58 -12 -7 -7 -12 -39 -12 -75 l0 -63 -40
0 -40 0 0 189 c0 142 3 191 13 194 23 10 196 7 246 -4z m599 -466 l3 -123 133
0 c74 0 141 -3 150 -6 24 -9 24 -209 0 -218 -9 -3 -67 -6 -129 -6 -168 0 -157
21 -153 -287 3 -250 3 -252 27 -277 34 -36 80 -42 158 -21 36 10 68 14 72 9
19 -22 83 -174 78 -187 -3 -8 -43 -27 -90 -42 -76 -24 -96 -27 -189 -23 -123
4 -177 27 -243 100 -74 83 -75 89 -75 679 0 284 3 519 7 523 4 3 61 5 127 4
l121 -3 3 -122z m-1783 -108 c201 -43 338 -190 380 -409 18 -94 19 -188 3
-204 -9 -9 -106 -12 -375 -12 l-363 0 -11 -23 c-13 -29 4 -76 46 -125 102
-121 348 -113 439 15 23 34 35 43 51 39 45 -11 176 -78 182 -92 16 -42 -79
-158 -170 -208 -94 -52 -166 -70 -287 -70 -171 0 -296 49 -398 158 -157 168
-196 432 -94 646 104 220 350 337 597 285z m1139 -15 c79 -25 158 -81 195
-138 57 -91 63 -129 70 -452 7 -294 7 -295 35 -360 47 -111 57 -101 -95 -98
-148 3 -141 0 -169 82 l-10 28 -24 -25 c-67 -73 -175 -111 -311 -111 -183 1
-320 82 -365 218 -22 69 -17 156 13 218 48 99 139 144 405 203 199 45 219 52
238 81 23 34 11 88 -24 112 -58 41 -170 55 -252 32 -47 -13 -106 -63 -131
-111 -23 -47 -20 -47 -149 15 -99 48 -102 58 -45 141 89 130 266 201 470 189
49 -3 116 -14 149 -24z m1533 19 c145 -19 271 -100 330 -211 36 -67 34 -71
-72 -112 -52 -20 -99 -36 -104 -36 -5 0 -25 22 -45 50 -53 74 -100 95 -211 95
-78 0 -94 -3 -122 -23 -41 -29 -51 -64 -29 -97 21 -32 55 -46 239 -95 195 -52
275 -89 331 -151 54 -60 70 -115 64 -213 -6 -87 -34 -144 -99 -200 -142 -121
-464 -137 -639 -31 -68 41 -98 73 -144 149 -54 89 -51 95 52 144 48 23 92 42
99 42 6 0 25 -25 42 -55 55 -96 148 -141 281 -133 110 7 170 43 170 102 0 61
-31 77 -293 150 -268 75 -357 152 -357 312 1 169 118 283 325 313 85 12 94 12
182 0z"/>
<path d="M1130 3025 l0 -45 78 0 c82 0 102 9 102 45 0 36 -20 45 -102 45 l-78
0 0 -45z"/>
<path d="M1148 2909 c-12 -7 -18 -22 -18 -49 l0 -40 90 0 c80 0 90 2 100 20
12 22 4 60 -14 72 -17 11 -138 9 -158 -3z"/>
<path d="M2100 3015 l0 -55 76 0 c93 0 114 10 114 53 0 50 -14 57 -107 57
l-83 0 0 -55z"/>
<path d="M890 2331 c-50 -16 -88 -41 -119 -80 -27 -34 -61 -99 -61 -116 0 -3
115 -5 256 -5 l257 0 -7 31 c-15 76 -71 146 -135 168 -38 12 -152 13 -191 2z"/>
<path d="M2065 1936 c-77 -18 -157 -38 -177 -45 -47 -16 -88 -63 -88 -103 0
-56 79 -108 165 -108 51 0 141 26 188 53 64 38 80 68 85 159 5 93 21 89 -173
44z"/>
</g>
</svg>
